PathFileType	4	(X/Y/Z)	C:\Users\86182\Documents\cortex\Trimmed_M4_H11.trc
DataRate	CameraRate	NumFrames	NumMarkers	Units	OrigDataRate	OrigDataStartFrame	OrigNumFrames
100.00	100.00	       98	2	mm	100.00	361	       901
Frame#	Time	gripper			box			
		X1	Y1	Z1	X2	Y2	Z2	

361	3.600	276.26144	151.24910	292.43359	278.19284	148.09250	156.04782	
362	3.610	276.26285	151.24699	292.42908	278.19635	148.09152	156.04230	
363	3.620	276.25903	151.24341	292.42392	278.19638	148.08986	156.03632	
364	3.630	276.24918	151.23761	292.41681	278.19196	148.08594	156.02792	
365	3.640	276.23270	151.22891	292.40631	278.18112	148.07774	156.01491	
366	3.650	276.20966	151.21710	292.39120	278.16183	148.06326	155.99579	
367	3.660	276.18146	151.20270	292.37097	278.13342	148.04117	155.97046	
368	3.670	276.15106	151.18707	292.34595	278.09778	148.01141	155.93983	
369	3.680	276.12183	151.17213	292.31732	278.05957	147.97575	155.90530	
370	3.690	276.09595	151.15952	292.28705	278.02493	147.93752	155.86896	
371	3.700	276.07413	151.15021	292.25790	277.99854	147.90099	155.83383	
372	3.710	276.05670	151.14430	292.23291	277.98126	147.87021	155.80347	
373	3.720	276.04449	151.14119	292.21439	277.97037	147.84799	155.78104	
374	3.730	276.03882	151.13988	292.20343	277.96194	147.83517	155.76843	
375	3.740	276.04068	151.13930	292.19968	277.95334	147.83057	155.76570	
376	3.750	276.05002	151.13841	292.20193	277.94412	147.83133	155.77113	
377	3.760	276.06558	151.13652	292.20831	277.93610	147.83366	155.78166	
378	3.770	276.08484	151.13348	292.21634	277.93246	147.83379	155.79321	
379	3.780	276.10452	151.12978	292.22299	277.93619	147.82941	155.80173	
380	3.790	276.12128	151.12622	292.22565	277.94812	147.82079	155.80438	
381	3.800	276.13248	151.12360	292.22314	277.96661	147.81038	155.80017	
382	3.810	276.13696	151.12236	292.21619	277.98859	147.80141	155.78976	
383	3.820	276.13525	151.12256	292.20667	278.01031	147.79616	155.77542	
384	3.830	276.12906	151.12386	292.19727	278.02783	147.79500	155.76089	
385	3.840	276.12064	151.12573	292.19009	278.03760	147.79695	155.75002	
386	3.850	276.11215	151.12756	292.18616	278.03748	147.80083	155.74545	
387	3.860	276.10538	151.12889	292.18570	278.02762	147.80591	155.74806	
388	3.870	276.10120	151.12962	292.18839	278.01016	147.81198	155.75690	
389	3.880	276.09946	151.13000	292.19336	277.98859	147.81885	155.76978	
390	3.890	276.09949	151.13048	292.19922	277.96707	147.82596	155.78351	
391	3.900	276.10025	151.13136	292.20428	277.95013	147.83237	155.79449	
392	3.910	276.10046	151.13280	292.20685	277.94058	147.83699	155.80014	
393	3.920	276.09906	151.13454	292.20609	277.93881	147.83891	155.79977	
394	3.930	276.09607	151.13617	292.20245	277.94379	147.83772	155.79443	
395	3.940	276.09265	151.13727	292.19751	277.95367	147.83385	155.78607	
396	3.950	276.09088	151.13745	292.19290	277.96637	147.82864	155.77695	
397	3.960	276.09259	151.13647	292.19000	277.97974	147.82370	155.76923	
398	3.970	276.09866	151.13432	292.18970	277.99237	147.82001	155.76425	
399	3.980	276.10867	151.13136	292.19214	278.00336	147.81776	155.76245	
400	3.990	276.12097	151.12819	292.19708	278.01215	147.81703	155.76340	
401	4.000	276.13324	151.12560	292.20334	278.01843	147.81827	155.76575	
402	4.010	276.14288	151.12416	292.20911	278.02258	147.82220	155.76761	
403	4.020	276.14767	151.12418	292.21234	278.02515	147.82855	155.76743	
404	4.030	276.14627	151.12561	292.21191	278.02646	147.83562	155.76471	
405	4.040	276.13861	151.12819	292.20801	278.02628	147.84123	155.76019	
406	4.050	276.12607	151.13142	292.20209	278.02344	147.84393	155.75562	
407	4.060	276.11124	151.13470	292.19626	278.01672	147.84319	155.75327	
408	4.070	276.09717	151.13744	292.19229	278.00571	147.83946	155.75485	
409	4.080	276.08664	151.13907	292.19113	277.99075	147.83432	155.76105	
410	4.090	276.08136	151.13922	292.19308	277.97290	147.82951	155.77151	
411	4.100	276.08200	151.13779	292.19785	277.95456	147.82576	155.78485	
412	4.110	276.08820	151.13492	292.20435	277.93973	147.82248	155.79837	
413	4.120	276.09848	151.13106	292.21100	277.93216	147.81871	155.80914	
414	4.130	276.11026	151.12695	292.21588	277.93387	147.81429	155.81470	
415	4.140	276.12054	151.12340	292.21771	277.94464	147.81039	155.81342	
416	4.150	276.12698	151.12106	292.21585	277.96326	147.80872	155.80475	
417	4.160	276.12869	151.12039	292.21069	277.98837	147.81013	155.78937	
418	4.170	276.12628	151.12151	292.20355	278.01785	147.81396	155.76950	
419	4.180	276.12125	151.12404	292.19604	278.04755	147.81857	155.74890	
420	4.190	276.11530	151.12729	292.18988	278.07184	147.82234	155.73181	
421	4.200	276.10992	151.13048	292.18649	278.08603	147.82436	155.72168	
422	4.210	276.10587	151.13312	292.18652	278.08786	147.82448	155.72017	
423	4.220	276.10294	151.13509	292.19000	278.07721	147.82294	155.72736	
424	4.230	276.10040	151.13641	292.19641	278.05548	147.82008	155.74200	
425	4.240	276.09756	151.13718	292.20438	278.02582	147.81644	155.76151	
426	4.250	276.09421	151.13747	292.21204	277.99301	147.81284	155.78204	
427	4.260	276.09012	151.13756	292.21738	277.96262	147.81032	155.79971	
428	4.270	276.08490	151.13783	292.21924	277.93933	147.80974	155.81155	
429	4.280	276.07883	151.13843	292.21735	277.92612	147.81160	155.81598	
430	4.290	276.07352	151.13910	292.21237	277.92416	147.81601	155.81284	
431	4.300	276.07117	151.13943	292.20563	277.93280	147.82253	155.80330	
432	4.310	276.07333	151.13918	292.19855	277.95029	147.83008	155.78940	
433	4.320	276.08041	151.13823	292.19232	277.97418	147.83702	155.77341	
434	4.330	276.09167	151.13672	292.18771	278.00128	147.84184	155.75758	
435	4.340	276.10550	151.13499	292.18512	278.02744	147.84387	155.74414	
436	4.350	276.12003	151.13335	292.18451	278.04813	147.84343	155.73497	
437	4.360	276.13339	151.13185	292.18536	278.06000	147.84128	155.73111	
438	4.370	276.14395	151.13033	292.18674	278.06174	147.83803	155.73251	
439	4.380	276.15051	151.12851	292.18781	278.05423	147.83388	155.73819	
440	4.390	276.15253	151.12640	292.18799	278.03992	147.82899	155.74652	
441	4.400	276.15030	151.12422	292.18744	278.02206	147.82411	155.75574	
442	4.410	276.14478	151.12231	292.18661	278.00427	147.82033	155.76401	
443	4.420	276.13754	151.12097	292.18625	277.98941	147.81876	155.77014	
444	4.430	276.13019	151.12042	292.18674	277.97861	147.82014	155.77409	
445	4.440	276.12421	151.12077	292.18802	277.97150	147.82468	155.77640	
446	4.450	276.12076	151.12202	292.18961	277.96783	147.83173	155.77737	
447	4.460	276.12012	151.12413	292.19086	277.96805	147.84004	155.77664	
448	4.470	276.12152	151.12685	292.19135	277.97244	147.84840	155.77377	
449	4.480	276.12335	151.12965	292.19092	277.98029	147.85591	155.76880	
450	4.490	276.12396	151.13205	292.18967	277.99011	147.86186	155.76239	
451	4.500	276.12253	151.13361	292.18768	278.00073	147.86552	155.75540	
452	4.510	276.11954	151.13411	292.18536	278.01089	147.86647	155.74896	
453	4.520	276.11612	151.13358	292.18329	278.01913	147.86444	155.74432	
454	4.530	276.11343	151.13220	292.18216	278.02417	147.85945	155.74258	
455	4.540	276.11218	151.13019	292.18262	278.02524	147.85185	155.74438	
456	4.550	276.11285	151.12767	292.18497	278.02206	147.84236	155.74997	
457	4.560	276.11584	151.12479	292.18924	278.01514	147.83197	155.75882	
458	4.570	276.12115	151.12177	292.19501	278.00623	147.82188	155.76935	
